HIERARCHY
ROOT Hips
{
	OFFSET 0.00000 0.00000 0.00000
	CHANNELS 6 Xposition Yposition Zposition Yrotation Zrotation Xrotation 
	JOINT Lumbar
	{
		OFFSET 0 0 0
		CHANNELS 3 Zrotation Xrotation Yrotation
		JOINT Neck
		{
			OFFSET 0.00 0.2701 0.00
			CHANNELS 3 Zrotation Xrotation Yrotation
			End Site
			{
				OFFSET 0.00 0.1379 0.00
			}
		}
		JOINT RightShoulder
		{
			OFFSET 0.0119 0.2289 0.1181
			CHANNELS 3 Zrotation Xrotation Yrotation
			JOINT RightElbow
			{
				OFFSET 0.00 -0.1475 0.00
				CHANNELS 2 Zrotation Yrotation
				JOINT RightWrist
				{
					OFFSET 0.00 -0.1605 0.00
					CHANNELS 2 Zrotation Xrotation
					End Site
					{
						OFFSET 0.0040 -0.1068 0.0006
					}
				}
			}
		}
		JOINT LeftShoulder
		{
			OFFSET 0.0119 0.2289 -0.1181
			CHANNELS 3 Zrotation Xrotation Yrotation
			JOINT LeftElbow
			{
				OFFSET 0.00 -0.1475 0.00
				CHANNELS 2 Zrotation Yrotation
				JOINT LeftWrist
				{
					OFFSET 0.00 -0.1605 0.00
					CHANNELS 2 Zrotation Xrotation
					End Site
					{
						OFFSET 0.0040 -0.1068 -0.0006
					}
				}
			}
		}
	}
	JOINT RightHip
	{
		OFFSET 0.0316 -0.0424 0.0458
		CHANNELS 3 Zrotation Xrotation Yrotation
		JOINT RightKnee
		{
			OFFSET 0.00 -0.2438 0.00
			CHANNELS 1 Zrotation
			JOINT RightAnkle
			{
				OFFSET 0.00 -0.2449 0.00
				CHANNELS 3 Zrotation Xrotation Yrotation
				End Site
				{
					OFFSET 0.1237 -0.0542 0.0051
				}
			}
		}
	}
	JOINT LeftHip
	{
		OFFSET 0.0316 -0.0424 -0.0458
		CHANNELS 3 Zrotation Xrotation Yrotation
		JOINT LeftKnee
		{
			OFFSET 0.00 -0.2438 0.00
			CHANNELS 1 Zrotation
			JOINT LeftAnkle
			{
				OFFSET 0.00 -0.2449 0.00
				CHANNELS 3 Zrotation Xrotation Yrotation
				End Site
				{
					OFFSET 0.1237 -0.0542 -0.0051
				}
			}
		}
	}
}
MOTION
Frames: 11
Frame Time: 0.02
0.25426 0.41154 -0.04676 187.20124 0 -5.49271 10.30462 8.19621 -3.5644 -19.52554 0.95768 -0.85784 35.13903 -13.31011 20.8106 131.16361 127.84274 -50.04481 -8.66207 36.86201 9.93702 -19.17994 131.54636 -133.78482 -58.1225 9.68706 72.50889 9.32162 -11.53865 -85.19545 -3.69213 -2.80364 -8.8266 101.2649 -12.50444 16.39084 -67.61019 -16.73421 1.56186 -1.14076
0.25466 0.41121 -0.0464 187.46393 0 -5.51009 10.61743 8.20194 -3.66854 -19.43548 0.7856 -1.05249 35.18731 -13.16866 20.53945 131.10555 128.13066 -50.54005 -8.70821 37.01903 9.96783 -18.97357 131.46553 -133.72669 -57.76517 9.64213 72.9518 8.21565 -11.8306 -86.09721 -3.30051 -2.93194 -9.40569 101.33628 -12.47561 15.00821 -66.83996 -16.73268 1.50712 -0.1933
0.25491 0.41099 -0.04594 187.73065 0 -5.49385 10.92956 8.17007 -3.74615 -19.34803 0.633 -1.21035 35.20988 -13.07846 20.20318 131.15567 128.20854 -50.70752 -8.71077 37.18242 9.96308 -18.92978 131.47302 -133.17897 -57.38824 9.54701 73.43139 6.97074 -12.03416 -87.05242 -3.07235 -3.00065 -9.50004 101.16854 -12.46277 13.46919 -66.08353 -16.59883 1.39942 0.47651
0.25522 0.41072 -0.04553 187.98859 0 -5.49144 11.24116 8.15167 -3.83193 -19.25734 0.48176 -1.37616 35.23826 -12.97275 19.89868 131.16506 128.39213 -51.00669 -8.71028 37.33436 9.97164 -18.83416 131.4554 -132.84009 -57.0367 9.44835 73.89516 5.8034 -12.25595 -87.97456 -2.77935 -3.0945 -9.82566 101.09585 -12.44243 11.96857 -65.36069 -16.54247 1.32054 1.26523
0.25558 0.41045 -0.0451 188.27759 0 -5.49614 11.5561 8.14937 -3.93518 -19.17376 0.28745 -1.58053 35.29097 -12.83339 19.58258 131.13996 128.5399 -51.38144 -8.80046 37.52239 9.99178 -18.64546 131.37617 -132.56403 -56.60869 9.45036 74.35724 4.56953 -12.57288 -88.93739 -2.44506 -3.19792 -10.11653 101.07919 -12.42244 10.60079 -64.46616 -16.41227 1.22212 2.1008
0.25579 0.41022 -0.0447 188.50223 0 -5.47776 11.86415 8.10402 -3.99531 -19.07668 0.18777 -1.6949 35.28897 -12.77683 19.27738 131.20956 128.70731 -51.52534 -8.69932 37.63616 9.97875 -18.68507 131.44273 -132.04377 -56.33772 9.24077 74.83 3.44335 -12.67142 -89.8283 -2.23188 -3.26767 -10.36119 100.88796 -12.4057 8.92475 -63.94011 -16.4012 1.15137 2.76662
0.25565 0.4101 -0.04435 188.5477 0 -5.40284 12.15124 7.95267 -3.94306 -18.94 0.34053 -1.57426 35.11764 -12.93345 19.00277 131.54517 129.00736 -51.04243 -8.00908 37.55007 9.89251 -19.36727 131.92551 -130.90829 -56.50784 8.38467 75.33276 2.64922 -12.16788 -90.48997 -2.36535 -3.24768 -10.58262 100.29345 -12.39432 6.39354 -64.35236 -16.79386 1.17303 3.03163
0.25535 0.41003 -0.04404 188.5281 0 -5.30599 12.43156 7.75875 -3.8481 -18.78969 0.58836 -1.36346 34.89572 -13.17219 18.74464 131.96759 129.3285 -50.34891 -7.13996 37.38742 9.77257 -20.2648 132.54589 -129.55381 -56.83692 7.33113 75.84271 1.96892 -11.45149 -91.0808 -2.60597 -3.19793 -10.77387 99.52836 -12.38534 3.56731 -65.14957 -17.30344 1.22381 3.13309
0.2551 0.40994 -0.04372 188.53836 0 -5.21955 12.71674 7.58154 -3.77244 -18.64755 0.7955 -1.19065 34.71378 -13.3754 18.48887 132.3292 129.62181 -49.79778 -6.40091 37.25608 9.66182 -21.03011 133.07994 -128.33775 -57.09286 6.41822 76.34349 1.23687 -10.84463 -91.71373 -2.76443 -3.16851 -10.98802 98.82832 -12.37564 0.90171 -65.81839 -17.73264 1.25913 3.30712
0.25494 0.40983 -0.04336 188.54759 0 -5.12966 12.99554 7.41326 -3.69648 -18.49913 0.99343 -1.02859 34.46236 -13.57307 18.18816 132.78151 129.98566 -49.04365 -5.45893 37.14151 9.57537 -21.94526 133.71617 -126.94026 -57.35294 5.29131 76.87208 0.49999 -10.17806 -92.30325 -3.07063 -3.10709 -11.15183 98.1718 -12.36644 -1.88884 -66.28702 -18.2732 1.30172 3.47913
0.25455 0.40977 -0.04308 188.54345 0 -5.04275 13.28454 7.21787 -3.61115 -18.35804 1.23197 -0.82395 34.34005 -13.80083 17.98716 133.06816 130.20936 -48.65988 -4.89205 36.97144 9.43112 -22.59839 134.17278 -125.8754 -57.64098 4.56051 77.34199 -0.19801 -9.58981 -92.9701 -3.09134 -3.10759 -11.41318 97.38815 -12.35465 -4.47792 -67.26908 -18.61002 1.33713 3.62014
